<?xml version="1.0" standalone="no"?>
<svg viewBox="0 0 200 200" xmlns="http://www.w3.org/2000/svg">
  <path fill="#FF0066" d="M45.7,-69.5C60,-61.9,72.9,-50.5,79.8,-36.2C86.6,-21.9,87.3,-4.6,82.8,10.3C78.2,25.3,68.3,38,57.2,48C46.1,58,33.7,65.4,20,70.5C6.3,75.7,-8.8,78.6,-23.6,76.2C-38.5,73.8,-53,66.2,-62.9,54.6C-72.8,43,-78,27.5,-76.9,13.1C-75.8,-1.3,-68.3,-14.6,-62.3,-28.8C-56.3,-43,-51.7,-58.1,-41.6,-67.6C-31.4,-77.1,-15.7,-81,0,-81C15.7,-80.9,31.4,-77.1,45.7,-69.5Z" transform="translate(100 100)" />
</svg>
